<svg width="11" height="15" viewBox="0 0 11 15" fill="none" xmlns="http://www.w3.org/2000/svg">
<path opacity="0.5" d="M9.625 5H8.9375V3.57143C8.9375 1.6 7.3975 0 5.5 0C3.6025 0 2.0625 1.6 2.0625 3.57143V5H1.375C0.61875 5 0 5.64286 0 6.42857V13.5714C0 14.3571 0.61875 15 1.375 15H9.625C10.3813 15 11 14.3571 11 13.5714V6.42857C11 5.64286 10.3813 5 9.625 5ZM5.5 11.4286C4.74375 11.4286 4.125 10.7857 4.125 10C4.125 9.21429 4.74375 8.57143 5.5 8.57143C6.25625 8.57143 6.875 9.21429 6.875 10C6.875 10.7857 6.25625 11.4286 5.5 11.4286ZM7.63125 5H3.36875V3.57143C3.36875 2.35 4.32438 1.35714 5.5 1.35714C6.67562 1.35714 7.63125 2.35 7.63125 3.57143V5Z" fill="#008490"/>
</svg>
